<mxfile host="app.diagrams.net" modified="2023-03-11T15:58:10.885Z" agent="5.0 (Windows NT 10.0; Win64; x64) AppleWebKit/537.36 (KHTML, like Gecko) Chrome/109.0.0.0 Safari/537.36 OPR/95.0.0.0" etag="908ZNpnj4QbPzddX_Wg2" version="21.0.6" type="github">
  <diagram id="C5RBs43oDa-KdzZeNtuy" name="Page-1">
    <mxGraphModel dx="881" dy="597" grid="1" gridSize="10" guides="1" tooltips="1" connect="1" arrows="1" fold="1" page="1" pageScale="1" pageWidth="827" pageHeight="1169" math="0" shadow="0">
      <root>
        <mxCell id="WIyWlLk6GJQsqaUBKTNV-0" />
        <mxCell id="WIyWlLk6GJQsqaUBKTNV-1" parent="WIyWlLk6GJQsqaUBKTNV-0" />
        <mxCell id="wEPcdbPYhGr3-dHpcgvf-5" value="" style="edgeStyle=orthogonalEdgeStyle;rounded=0;orthogonalLoop=1;jettySize=auto;html=1;" edge="1" parent="WIyWlLk6GJQsqaUBKTNV-1" source="wEPcdbPYhGr3-dHpcgvf-0" target="wEPcdbPYhGr3-dHpcgvf-1">
          <mxGeometry relative="1" as="geometry" />
        </mxCell>
        <mxCell id="wEPcdbPYhGr3-dHpcgvf-0" value="Start" style="ellipse;whiteSpace=wrap;html=1;" vertex="1" parent="WIyWlLk6GJQsqaUBKTNV-1">
          <mxGeometry x="320" y="10" width="120" height="80" as="geometry" />
        </mxCell>
        <mxCell id="wEPcdbPYhGr3-dHpcgvf-6" value="" style="edgeStyle=orthogonalEdgeStyle;rounded=0;orthogonalLoop=1;jettySize=auto;html=1;" edge="1" parent="WIyWlLk6GJQsqaUBKTNV-1" source="wEPcdbPYhGr3-dHpcgvf-1" target="wEPcdbPYhGr3-dHpcgvf-3">
          <mxGeometry relative="1" as="geometry" />
        </mxCell>
        <mxCell id="wEPcdbPYhGr3-dHpcgvf-1" value="Podaj l" style="shape=parallelogram;perimeter=parallelogramPerimeter;whiteSpace=wrap;html=1;fixedSize=1;" vertex="1" parent="WIyWlLk6GJQsqaUBKTNV-1">
          <mxGeometry x="320" y="140" width="120" height="60" as="geometry" />
        </mxCell>
        <mxCell id="wEPcdbPYhGr3-dHpcgvf-7" value="" style="edgeStyle=orthogonalEdgeStyle;rounded=0;orthogonalLoop=1;jettySize=auto;html=1;" edge="1" parent="WIyWlLk6GJQsqaUBKTNV-1" source="wEPcdbPYhGr3-dHpcgvf-3" target="wEPcdbPYhGr3-dHpcgvf-4">
          <mxGeometry relative="1" as="geometry" />
        </mxCell>
        <mxCell id="wEPcdbPYhGr3-dHpcgvf-3" value="t = [-3,4,5,23,-55,435,-666,2137,420]" style="rounded=0;whiteSpace=wrap;html=1;" vertex="1" parent="WIyWlLk6GJQsqaUBKTNV-1">
          <mxGeometry x="280" y="240" width="200" height="70" as="geometry" />
        </mxCell>
        <mxCell id="wEPcdbPYhGr3-dHpcgvf-11" style="edgeStyle=orthogonalEdgeStyle;rounded=0;orthogonalLoop=1;jettySize=auto;html=1;entryX=0.5;entryY=0;entryDx=0;entryDy=0;" edge="1" parent="WIyWlLk6GJQsqaUBKTNV-1" source="wEPcdbPYhGr3-dHpcgvf-4" target="wEPcdbPYhGr3-dHpcgvf-10">
          <mxGeometry relative="1" as="geometry" />
        </mxCell>
        <mxCell id="wEPcdbPYhGr3-dHpcgvf-13" style="edgeStyle=orthogonalEdgeStyle;rounded=0;orthogonalLoop=1;jettySize=auto;html=1;entryX=0.5;entryY=0;entryDx=0;entryDy=0;" edge="1" parent="WIyWlLk6GJQsqaUBKTNV-1" source="wEPcdbPYhGr3-dHpcgvf-4" target="wEPcdbPYhGr3-dHpcgvf-12">
          <mxGeometry relative="1" as="geometry" />
        </mxCell>
        <mxCell id="wEPcdbPYhGr3-dHpcgvf-4" value="l in t" style="rhombus;whiteSpace=wrap;html=1;" vertex="1" parent="WIyWlLk6GJQsqaUBKTNV-1">
          <mxGeometry x="340" y="350" width="80" height="80" as="geometry" />
        </mxCell>
        <mxCell id="wEPcdbPYhGr3-dHpcgvf-10" value="Podana liczba znajduje się w tablicy" style="rounded=0;whiteSpace=wrap;html=1;" vertex="1" parent="WIyWlLk6GJQsqaUBKTNV-1">
          <mxGeometry x="430" y="430" width="120" height="60" as="geometry" />
        </mxCell>
        <mxCell id="wEPcdbPYhGr3-dHpcgvf-12" value="Ta liczba nie znajduje się w tablicy" style="rounded=0;whiteSpace=wrap;html=1;" vertex="1" parent="WIyWlLk6GJQsqaUBKTNV-1">
          <mxGeometry x="210" y="430" width="120" height="60" as="geometry" />
        </mxCell>
      </root>
    </mxGraphModel>
  </diagram>
</mxfile>
